<svg xmlns="http://www.w3.org/2000/svg" viewBox="0 0 24 24" fill="currentColor" aria-hidden="true"><path d="M12 0C5.373 0 0 5.373 0 12s5.373 12 12 12 12-5.373 12-12S18.627 0 12 0zm5.625 12.84c.029.18.044.36.044.541 0 2.764-3.221 5.008-7.187 5.008-3.967 0-7.188-2.244-7.188-5.008 0-.18.014-.36.043-.541-.625-.281-1.063-.916-1.063-1.652 0-1 .813-1.813 1.813-1.813.485 0 .926.191 1.252.502 1.235-.881 2.928-1.443 4.812-1.51l.917-4.328a.342.342 0 01.408-.262l3.011.641c.211-.43.654-.728 1.166-.728.715 0 1.297.582 1.297 1.297 0 .715-.582 1.297-1.297 1.297a1.298 1.298 0 01-1.295-1.244l-2.703-.575-.832 3.917c1.864.078 3.539.638 4.766 1.512.326-.31.766-.5 1.252-.5 1 0 1.813.812 1.813 1.812 0 .737-.438 1.371-1.063 1.652zm-9.516.346c0 .603.488 1.092 1.092 1.092.603 0 1.091-.489 1.091-1.092 0-.603-.488-1.092-1.091-1.092-.604 0-1.092.489-1.092 1.092zm5.781 0c0 .603.488 1.092 1.091 1.092s1.092-.489 1.092-1.092c0-.603-.489-1.092-1.092-1.092-.603 0-1.091.489-1.091 1.092zm-.092 2.604c-.418.418-1.193.452-1.42.452-.227 0-1.002-.034-1.42-.452a.156.156 0 00-.22 0 .157.157 0 000 .221c.527.527 1.539.569 1.64.569.102 0 1.114-.042 1.641-.569a.157.157 0 000-.221.157.157 0 00-.221 0z"/></svg>
