<svg width="507" height="506" viewBox="0 0 507 506" fill="none" xmlns="http://www.w3.org/2000/svg">
<path d="M139.023 0L366.993 0.000170269C384.821 0.000170269 393.735 7.51577e-05 399.274 5.53867C404.813 11.0773 404.812 19.9916 404.812 37.8201V6.66074C404.812 51.2273 404.812 73.511 418.657 87.3561C432.502 101.201 454.786 101.201 499.353 101.201H469.815C486.569 101.206 495.109 101.371 500.477 106.739C506.016 112.277 506.016 121.192 506.016 139.02V366.98C506.016 384.808 506.016 393.723 500.477 399.261C495.152 404.586 486.707 404.791 470.221 404.799H499.353L495.239 404.799C453.402 404.812 432.07 405.231 418.657 418.644C404.812 432.489 404.812 454.773 404.812 499.339V468.18C404.812 486.008 404.813 494.923 399.274 500.461C393.735 506 384.821 506 366.993 506H139.023C121.195 506 112.28 506 106.742 500.461C101.813 495.533 101.271 487.931 101.211 473.753V499.34C101.211 454.774 101.211 432.49 87.3663 418.645C73.5212 404.8 51.2373 404.8 6.67096 404.8L37.8199 404.8L101.211 303.6L101.212 309.533C101.233 338.276 101.563 353.372 106.845 365.34C113.508 380.439 125.572 392.503 140.671 399.166C153.437 404.8 169.761 404.8 202.41 404.8H303.609L303.612 404.8C336.261 404.8 352.587 404.8 365.353 399.166C380.451 392.503 392.516 380.439 399.179 365.34C404.812 352.574 404.812 336.249 404.812 303.601V202.401C404.812 169.752 404.812 153.427 399.179 140.661C392.515 125.562 380.451 113.498 365.353 106.835C352.587 101.201 336.262 101.201 303.613 101.201L196.47 101.202C167.727 101.223 152.631 101.553 140.663 106.835C125.564 113.498 113.5 125.562 106.837 140.661C101.203 153.427 101.203 169.751 101.203 202.4L101.211 303.6L37.8199 404.8C19.9915 404.8 11.0773 404.8 5.53867 399.261C6.58461e-05 393.723 0 384.808 0 366.98V139.02C0 121.192 6.15229e-05 112.277 5.53867 106.739C10.8635 101.414 19.3084 101.209 35.7951 101.201H6.67096C51.2375 101.201 73.5212 101.201 87.3663 87.3561C101.211 73.511 101.211 51.2271 101.211 6.66074V32.2472C101.271 18.0693 101.813 10.4674 106.742 5.53867C112.28 6.55136e-05 121.195 0 139.023 0Z" fill="black"/>
</svg>
