<svg width="3167" height="506" viewBox="0 0 3167 506" fill="none" xmlns="http://www.w3.org/2000/svg">
<path d="M139.023 0L366.993 0.000170269C384.821 0.000170269 393.735 7.51577e-05 399.274 5.53867C404.813 11.0773 404.812 19.9916 404.812 37.8201V6.66074C404.812 51.2273 404.812 73.511 418.657 87.3561C432.502 101.201 454.786 101.201 499.353 101.201H469.815C486.569 101.206 495.109 101.371 500.477 106.739C506.016 112.277 506.016 121.192 506.016 139.02V366.98C506.016 384.808 506.016 393.723 500.477 399.261C495.152 404.586 486.707 404.791 470.221 404.799H499.353L495.239 404.799C453.401 404.812 432.07 405.231 418.657 418.644C404.812 432.489 404.812 454.773 404.812 499.339V468.18C404.812 486.008 404.813 494.923 399.274 500.461C393.735 506 384.821 506 366.993 506H139.023C121.195 506 112.28 506 106.742 500.461C101.813 495.533 101.271 487.931 101.211 473.753V499.34C101.211 454.774 101.211 432.49 87.3663 418.645C73.5212 404.8 51.2373 404.8 6.67096 404.8L37.8199 404.8L101.211 303.6L101.212 309.533C101.233 338.276 101.563 353.372 106.845 365.34C113.508 380.439 125.572 392.503 140.671 399.166C153.437 404.8 169.761 404.8 202.41 404.8H303.609L303.612 404.8C336.261 404.8 352.587 404.8 365.353 399.166C380.451 392.503 392.516 380.439 399.179 365.34C404.812 352.574 404.812 336.249 404.812 303.601V202.401C404.812 169.752 404.812 153.427 399.179 140.661C392.515 125.562 380.451 113.498 365.353 106.835C352.587 101.201 336.262 101.201 303.613 101.201L196.47 101.202C167.727 101.223 152.631 101.553 140.663 106.835C125.564 113.498 113.5 125.562 106.837 140.661C101.203 153.427 101.203 169.751 101.203 202.4L101.211 303.6L37.8199 404.8C19.9915 404.8 11.0773 404.8 5.53867 399.261C6.58461e-05 393.723 0 384.808 0 366.98V139.02C0 121.192 6.15229e-05 112.277 5.53867 106.739C10.8635 101.414 19.3084 101.209 35.7951 101.201H6.67096C51.2375 101.201 73.5212 101.201 87.3663 87.3561C101.211 73.511 101.211 51.2271 101.211 6.66074V32.2472C101.271 18.0693 101.813 10.4674 106.742 5.53867C112.28 6.55136e-05 121.195 0 139.023 0Z" fill="black"/>
<path d="M927.646 475.084C889.31 475.084 855.366 466.299 825.816 448.728C796.265 430.758 773.104 405.4 756.332 372.655C739.959 339.51 731.773 299.777 731.773 253.454C731.773 207.93 739.959 168.596 756.332 135.451C772.704 101.907 795.466 76.15 824.618 58.18C854.168 39.8107 888.711 30.626 928.245 30.626C981.755 30.626 1023.29 44.0037 1052.84 70.759C1082.39 97.5143 1101.75 134.652 1110.94 182.173L1036.06 185.767C1030.47 157.414 1018.69 135.052 1000.72 118.679C983.153 102.306 958.993 94.12 928.245 94.12C903.486 94.12 881.922 100.709 863.553 113.887C845.183 126.666 831.007 145.035 821.024 168.995C811.04 192.556 806.049 220.709 806.049 253.454C806.049 286.199 811.04 314.552 821.024 338.512C831.406 362.073 845.583 380.242 863.553 393.021C881.922 405.4 903.286 411.59 927.646 411.59C960.79 411.59 986.348 402.805 1004.32 385.234C1022.29 367.264 1033.67 342.705 1038.46 311.557L1113.34 315.75C1108.14 348.096 1097.56 376.249 1081.59 400.209C1066.01 424.169 1045.25 442.738 1019.29 455.916C993.336 468.695 962.787 475.084 927.646 475.084ZM1231.94 465.5C1209.58 465.5 1191.81 459.909 1178.63 448.728C1165.45 437.147 1158.86 418.778 1158.86 393.62V40.21H1228.95V387.031C1228.95 394.618 1230.94 400.409 1234.94 404.402C1238.93 407.996 1244.52 409.793 1251.71 409.793H1276.27V465.5H1231.94ZM1447.12 472.688C1415.97 472.688 1388.82 465.899 1365.66 452.322C1342.49 438.345 1324.52 418.978 1311.75 394.219C1299.37 369.061 1293.18 339.51 1293.18 305.567C1293.18 272.023 1299.37 242.872 1311.75 218.113C1324.52 193.354 1342.29 173.987 1365.06 160.01C1387.82 146.033 1414.57 139.045 1445.32 139.045C1475.27 139.045 1501.43 145.834 1523.79 159.411C1546.15 172.589 1563.52 191.957 1575.9 217.514C1588.28 242.672 1594.47 273.221 1594.47 309.161V325.933H1366.25C1367.85 355.484 1375.84 377.647 1390.21 392.422C1404.59 407.197 1423.76 414.585 1447.72 414.585C1466.09 414.585 1481.06 410.592 1492.64 402.605C1504.62 394.219 1512.81 382.838 1517.2 368.462L1589.68 373.254C1581.3 403.603 1564.52 427.763 1539.37 445.733C1514.21 463.703 1483.46 472.688 1447.12 472.688ZM1366.25 276.216H1520.8C1519.2 249.061 1511.41 229.095 1497.44 216.316C1483.86 203.138 1466.49 196.549 1445.32 196.549C1424.16 196.549 1406.59 203.338 1392.61 216.915C1378.63 230.492 1369.85 250.259 1366.25 276.216ZM1737.64 472.688C1704.49 472.688 1677.74 465.101 1657.37 449.926C1637.41 434.352 1627.42 412.988 1627.42 385.833C1627.42 358.279 1635.81 336.715 1652.58 321.141C1669.75 305.567 1695.71 294.386 1730.45 287.597L1838.27 266.632C1838.27 243.071 1832.88 225.301 1822.1 213.321C1811.32 201.341 1795.14 195.351 1773.58 195.351C1754.01 195.351 1738.64 199.943 1727.46 209.128C1716.27 217.913 1708.69 230.492 1704.69 246.865L1632.81 243.271C1639.2 210.526 1654.58 184.968 1678.94 166.599C1703.3 148.23 1734.84 139.045 1773.58 139.045C1817.9 139.045 1851.45 150.626 1874.21 173.787C1896.97 196.549 1908.35 228.895 1908.35 270.825V391.224C1908.35 399.211 1909.75 404.801 1912.55 407.996C1915.74 411.191 1920.33 412.788 1926.32 412.788H1937.11V465.5C1934.71 466.299 1931.12 466.898 1926.32 467.297C1921.53 467.696 1916.54 467.896 1911.35 467.896C1897.77 467.896 1885.99 465.7 1876.01 461.307C1866.02 456.914 1858.24 449.527 1852.65 439.144C1847.46 428.761 1844.86 414.785 1844.86 397.214L1851.45 400.808C1848.25 414.785 1841.27 427.364 1830.48 438.545C1820.1 449.327 1806.92 457.713 1790.95 463.703C1774.98 469.693 1757.21 472.688 1737.64 472.688ZM1750.82 419.976C1768.79 419.976 1784.36 416.382 1797.54 409.194C1810.72 402.006 1820.7 392.222 1827.49 379.843C1834.68 367.064 1838.27 352.489 1838.27 336.116V316.948L1750.82 334.319C1732.45 337.913 1719.47 343.304 1711.88 350.492C1704.29 357.68 1700.5 367.264 1700.5 379.244C1700.5 392.023 1704.89 402.006 1713.68 409.194C1722.46 416.382 1734.84 419.976 1750.82 419.976ZM1974.42 465.5V146.233H2039.11L2042.1 233.088L2036.11 231.291C2040.51 201.74 2049.29 180.176 2062.47 166.599C2076.05 153.022 2094.22 146.233 2116.98 146.233H2146.93V207.331H2116.98C2100.61 207.331 2087.03 209.927 2076.25 215.118C2065.86 220.309 2057.88 228.096 2052.29 238.479C2047.1 248.862 2044.5 262.439 2044.5 279.211V465.5H1974.42ZM2349.39 472.688C2327.03 472.688 2307.46 467.896 2290.69 458.312C2273.92 448.728 2260.94 435.35 2251.75 418.179L2249.96 465.5H2184.07V40.21H2254.15V191.158C2262.54 177.181 2274.92 165.002 2291.29 154.619C2308.06 144.236 2327.43 139.045 2349.39 139.045C2376.94 139.045 2400.71 146.033 2420.67 160.01C2441.04 173.587 2456.61 192.755 2467.39 217.514C2478.58 242.273 2484.17 271.624 2484.17 305.567C2484.17 339.51 2478.58 369.061 2467.39 394.219C2456.61 418.978 2441.04 438.345 2420.67 452.322C2400.71 465.899 2376.94 472.688 2349.39 472.688ZM2335.01 413.986C2358.18 413.986 2376.75 404.402 2390.72 385.234C2404.7 366.066 2411.69 339.51 2411.69 305.567C2411.69 271.624 2404.7 245.268 2390.72 226.499C2377.14 207.331 2358.97 197.747 2336.21 197.747C2319.04 197.747 2304.27 202.14 2291.89 210.925C2279.51 219.311 2270.12 231.491 2263.73 247.464C2257.34 263.437 2254.15 282.805 2254.15 305.567C2254.15 327.93 2257.34 347.297 2263.73 363.67C2270.12 379.643 2279.31 392.023 2291.29 400.808C2303.67 409.593 2318.24 413.986 2335.01 413.986ZM2666.54 472.688C2635.79 472.688 2608.64 465.899 2585.08 452.322C2561.92 438.345 2543.95 418.978 2531.17 394.219C2518.39 369.061 2512 339.51 2512 305.567C2512 271.624 2518.39 242.273 2531.17 217.514C2543.95 192.755 2561.92 173.587 2585.08 160.01C2608.64 146.033 2635.79 139.045 2666.54 139.045C2697.69 139.045 2724.65 146.033 2747.41 160.01C2770.57 173.587 2788.54 192.755 2801.32 217.514C2814.1 242.273 2820.49 271.624 2820.49 305.567C2820.49 339.51 2814.1 369.061 2801.32 394.219C2788.54 418.978 2770.57 438.345 2747.41 452.322C2724.65 465.899 2697.69 472.688 2666.54 472.688ZM2666.54 413.986C2692.5 413.986 2712.47 404.602 2726.44 385.833C2740.82 366.665 2748.01 339.91 2748.01 305.567C2748.01 272.023 2740.82 245.667 2726.44 226.499C2712.47 207.331 2692.5 197.747 2666.54 197.747C2640.99 197.747 2621.02 207.331 2606.64 226.499C2592.27 245.667 2585.08 272.023 2585.08 305.567C2585.08 339.91 2592.27 366.665 2606.64 385.833C2621.02 404.602 2640.99 413.986 2666.54 413.986ZM2823.52 465.5L2939.13 302.572L2828.31 146.233H2905.58L2981.06 257.647L3055.33 146.233H3133.8L3023.58 303.171L3137.99 465.5H3060.72L2982.25 346.898L2902.59 465.5H2823.52Z" fill="black"/>
</svg>
